<svg xmlns="http://www.w3.org/2000/svg" xmlns:xlink="http://www.w3.org/1999/xlink" viewBox="0 0 382.65 355.39"><defs><style>.cls-1{fill:url(#linear-gradient);}.cls-2{fill:url(#linear-gradient-2);}.cls-3{fill:url(#linear-gradient-3);}</style><linearGradient id="linear-gradient" x1="-14.05" y1="181.68" x2="390.09" y2="181.68" gradientUnits="userSpaceOnUse"><stop offset="0" stop-color="#2e81e4"/><stop offset="0.25" stop-color="#2d84e3"/><stop offset="0.42" stop-color="#2c8cdf"/><stop offset="0.56" stop-color="#289bd8"/><stop offset="0.68" stop-color="#24b0ce"/><stop offset="0.77" stop-color="#20c3c6"/></linearGradient><linearGradient id="linear-gradient-2" x1="0.02" y1="71.39" x2="356.84" y2="71.39" gradientUnits="userSpaceOnUse"><stop offset="0" stop-color="#953fde"/><stop offset="1" stop-color="#4264ef"/></linearGradient><linearGradient id="linear-gradient-3" x1="13.01" y1="275.64" x2="332.51" y2="275.64" gradientUnits="userSpaceOnUse"><stop offset="0" stop-color="#00b5bc"/><stop offset="0.38" stop-color="#02b8bb"/><stop offset="0.63" stop-color="#0ac0b9"/><stop offset="0.77" stop-color="#12c9b6"/></linearGradient></defs><g id="Layer_2" data-name="Layer 2"><g id="Layer_1-2" data-name="Layer 1"><path class="cls-1" d="M0,264.16v-3.65c0-21.73.06-43.46,0-65.19a34.29,34.29,0,0,1,10.55-25.51q27.84-27.67,55.54-55.5A49.64,49.64,0,0,1,99.65,99.4q39.38-1.55,78.83-.75a49.34,49.34,0,0,1,34.93,15.23c14.19,14.39,28.65,28.5,42.82,42.9C267.3,168,280.3,174,296.31,173.19c8.09-.4,16.21-.07,24.75-.07,0-4.32-.37-8.39.11-12.35.39-3.14,1.19-6.61,2.95-9.12,3.13-4.49,9.56-5.07,13.84-1.52,3.9,3.22,7.4,6.93,11,10.49,10,9.9,19.8,20.1,30.17,29.63,4.72,4.33,4.62,12.25,0,16.78-13.46,13.12-26.7,26.48-39.91,39.87-3.45,3.49-7.2,5.1-11.92,3.4s-7.54-6.21-7.63-11.63c-.08-4.44-.09-8.88-.14-13.32,0-.12-.1-.23-.37-.79-3.29,0-6.8,0-10.31,0-14.86-.08-29.75.36-44.58-.42a57.89,57.89,0,0,1-38.33-16.93C212.52,194,199.32,180.63,186,167.34a33.92,33.92,0,0,0-24.88-10.25c-12.2,0-24.4.25-36.59-.06-12-.31-21.63,4.24-29.85,12.52q-45.63,46-91.22,92.05A22.19,22.19,0,0,0,1.17,265Z"/><path class="cls-2" d="M294.36,115.44c-7.38-.63-14.35-.84-21.2-1.89-11.17-1.72-20.77-7-29-14.69-9.09-8.5-18.06-17.16-26.8-26-9.1-9.21-19.6-13.94-32.84-13.75q-47.07.67-94.16.15c-14-.13-25.31,4.83-35,14.57-17.2,17.32-34.51,34.52-51.75,51.79a39.47,39.47,0,0,0-2.61,3.25l-.85-.43c-.07-1.18-.18-2.36-.18-3.54Q0,98.58,0,72.27C.1,35.49,24.47,6.57,59.12,1.49A133.29,133.29,0,0,1,78.06.16c41.56-.13,83.12-.28,124.67,0C220.34.27,234.27,8.48,246,21.45c11.23,12.44,23,24.44,35,36.17,3.33,3.26,8.25,4.88,12.44,7.25l1-1a69,69,0,0,1,.07-8.51c.44-3.58.66-7.49,2.27-10.56,3-5.72,13.16-5.6,17.27-1.31q19.39,20.22,39.62,39.63c3.93,3.77,4.44,11.25.39,15.33-13.71,13.8-27.4,27.61-41.28,41.23-3.41,3.35-7.91,4-12.37,1.91s-6.2-5.63-6.05-10.45C294.49,126,294.36,120.77,294.36,115.44Z"/><path class="cls-3" d="M271.49,278.07c0-5.21.1-9.63,0-14.05-.13-4.69,2.28-7.7,6.27-9.5s8-1.38,11.2,1.84c13.47,13.49,26.94,27,40.28,40.58,4.47,4.56,4.37,10.38-.12,14.91Q309,332.16,288.66,352.29a9.54,9.54,0,0,1-10.8,2.34c-3.89-1.46-6.3-4.12-6.52-8.42-.28-5.42-.49-10.85-.75-16.75-4.36,0-8.77,0-13.18,0-19-.09-35.31-6.43-48.73-20.09q-23.38-23.79-47-47.37c-8.67-8.71-18.49-9.53-27.73-1.47-7.45,6.5-14.16,13.84-21.14,20.87-15.85,16-31.5,32.12-47.57,47.86-8.72,8.53-19.35,12.22-31.28,7.59S14.79,323,13.16,310.14c-.89-7.08,2.35-13.15,7.21-18.11Q51.06,260.74,82,229.64c7.42-7.47,14.65-15.24,22.77-21.89,10-8.15,22.14-11.49,35-11.65,9.83-.12,19.74-1,29.4,2.14a55,55,0,0,1,22.74,13.83q23.93,24.57,47.88,49.14c6.21,6.36,12.42,12.8,21.46,15.08C264.39,277.1,267.73,277.44,271.49,278.07Z"/></g></g></svg>